<?xml version="1.0" encoding="UTF-8"?>
<svg xmlns="http://www.w3.org/2000/svg" xmlns:xlink="http://www.w3.org/1999/xlink" width="1500px" height="1500px" viewBox="0 0 1500 1500" version="1.1">
<g id="surface1">
<path style="fill-rule:nonzero;fill:rgb(100%,100%,100%);fill-opacity:1;stroke-width:0.00032;stroke-linecap:butt;stroke-linejoin:miter;stroke:rgb(0%,0%,0%);stroke-opacity:1;stroke-miterlimit:4;" d="M 26.741 18.661 C 26.501 18.383 26.091 18.459 25.774 18.522 C 25.012 18.658 24.183 18.816 23.445 18.499 C 24.763 16.419 25.8 14.148 26.38 11.751 C 26.591 10.84 26.754 9.908 26.723 8.97 C 26.7 8.445 26.627 7.886 26.306 7.451 C 25.512 6.404 24.361 5.641 23.092 5.3 C 21.507 4.87 19.807 4.998 18.248 5.48 C 18.119 5.506 17.992 5.448 17.866 5.432 C 16.451 5.145 14.891 5.258 13.664 6.077 C 12.191 5.547 10.608 5.227 9.04 5.391 C 7.874 5.512 6.703 6.054 6.034 7.047 C 5.188 8.286 5.073 9.868 5.208 11.32 C 5.48 13.248 5.95 15.146 6.548 16.997 C 6.942 18.151 7.376 19.314 8.077 20.322 C 8.433 20.817 8.906 21.316 9.543 21.394 C 10.109 21.463 10.621 21.112 10.968 20.696 C 11.568 19.978 12.185 19.273 12.825 18.591 C 13.243 18.796 13.697 18.914 14.161 18.949 C 13.91 19.247 13.703 19.636 13.303 19.753 C 12.764 19.961 12.133 19.933 11.658 20.292 C 11.384 20.488 11.371 20.915 11.617 21.14 C 12.062 21.572 12.718 21.665 13.31 21.715 C 14.149 21.779 14.997 21.497 15.634 20.947 C 15.63 22.281 15.636 23.619 15.786 24.946 C 15.861 25.723 16.196 26.497 16.787 27.02 C 17.344 27.506 18.138 27.607 18.845 27.484 C 19.539 27.352 20.252 27.144 20.794 26.67 C 21.37 26.162 21.616 25.395 21.73 24.659 C 21.937 23.34 22.094 22.015 22.244 20.69 C 23.727 20.94 25.405 20.656 26.513 19.573 C 26.75 19.35 26.975 18.964 26.741 18.661 Z M 23.45 6.117 C 24.34 6.455 25.131 7.042 25.725 7.785 C 26.008 8.14 26.044 8.617 26.062 9.053 C 26.075 10.093 25.865 11.12 25.598 12.12 C 25.087 13.971 24.311 15.745 23.336 17.397 C 23.24 17.56 23.135 17.717 23.019 17.866 C 23.01 17.821 22.992 17.729 22.983 17.683 C 23.104 17.365 23.281 17.065 23.35 16.727 C 23.594 15.774 23.388 14.793 23.3 13.834 C 23.208 12.929 23.517 12.048 23.509 11.145 C 23.544 10.703 23.369 10.285 23.199 9.888 C 22.584 8.513 21.606 7.29 20.351 6.45 C 20.045 6.24 19.703 6.093 19.398 5.882 C 20.732 5.596 22.163 5.632 23.449 6.116 Z M 22.637 13.836 C 22.715 14.907 23.026 16.057 22.521 17.073 C 21.844 15.726 20.969 14.44 20.664 12.94 C 20.578 12.463 20.556 11.859 20.98 11.527 C 21.518 11.145 22.221 11.231 22.843 11.269 C 22.816 12.128 22.552 12.971 22.638 13.836 Z M 10.534 20.181 C 10.291 20.467 9.963 20.808 9.549 20.723 C 9.065 20.583 8.757 20.141 8.487 19.744 C 7.758 18.578 7.319 17.261 6.916 15.954 C 6.465 14.407 6.085 12.835 5.866 11.237 C 5.757 10.021 5.825 8.717 6.447 7.634 C 6.913 6.814 7.782 6.291 8.695 6.12 C 10.157 5.839 11.656 6.137 13.059 6.565 C 12.44 7.245 11.958 8.046 11.677 8.923 C 11.294 10.094 11.119 11.34 11.211 12.571 C 11.264 13.438 11.241 14.309 11.12 15.169 C 10.968 16.292 11.419 17.447 12.253 18.205 C 11.685 18.869 11.083 19.502 10.533 20.182 Z M 11.814 16.158 C 11.671 15.522 11.858 14.882 11.879 14.245 C 11.928 13.524 11.877 12.802 11.863 12.081 C 12.537 11.645 13.325 11.304 14.142 11.351 C 14.565 11.369 14.955 11.668 15.057 12.085 C 15.428 13.562 15.543 15.206 14.832 16.605 C 14.584 17.145 14.383 17.704 14.21 18.271 C 13.028 18.283 12.023 17.284 11.814 16.159 Z M 15.492 20.112 C 14.75 21.117 13.265 21.309 12.192 20.762 C 12.721 20.517 13.34 20.536 13.851 20.234 C 14.345 19.968 14.541 19.383 15.003 19.082 C 15.506 19.011 15.873 19.758 15.493 20.111 Z M 21.856 18.938 C 21.574 19.392 21.673 19.946 21.604 20.45 C 21.442 21.863 21.283 23.278 21.053 24.682 C 20.944 25.355 20.658 26.07 20.023 26.405 C 19.372 26.736 18.616 26.944 17.884 26.831 C 17.189 26.709 16.751 26.061 16.554 25.43 C 16.41 24.901 16.395 24.348 16.354 23.803 C 16.284 22.488 16.283 21.17 16.317 19.854 C 16.346 19.34 16.082 18.805 15.623 18.555 C 15.401 18.43 15.141 18.413 14.893 18.393 C 15.088 17.426 15.677 16.591 15.879 15.625 C 16.141 14.43 15.996 13.186 15.728 12.006 C 15.597 11.417 15.149 10.896 14.553 10.753 C 13.635 10.522 12.709 10.881 11.888 11.265 C 11.992 9.931 12.349 8.565 13.166 7.482 C 13.767 6.676 14.699 6.138 15.694 6.009 C 17.336 5.8 19.06 6.252 20.365 7.279 C 21.443 8.131 22.295 9.285 22.754 10.583 C 21.991 10.556 21.126 10.525 20.509 11.055 C 19.949 11.527 19.877 12.332 20.003 13.008 C 20.295 14.616 21.244 15.983 21.944 17.429 C 22.13 17.768 22.38 18.064 22.618 18.368 C 22.335 18.511 22.019 18.648 21.858 18.939 Z M 23.82 20.075 C 23.316 20.135 22.792 20.153 22.306 19.986 C 22.308 19.711 22.293 19.385 22.514 19.18 C 22.689 19.051 22.938 18.932 23.14 19.073 C 24 19.526 25 19.305 25.915 19.194 C 25.356 19.738 24.582 19.992 23.82 20.075 Z M 21.178 11.728 C 20.999 11.875 21.192 12.095 21.346 12.164 C 21.719 12.383 22.23 12.077 22.242 11.651 C 21.905 11.494 21.482 11.51 21.177 11.728 Z M 14.576 12.408 C 14.735 12.318 14.903 12.071 14.719 11.922 C 14.457 11.709 14.076 11.668 13.757 11.754 C 13.654 11.79 13.546 11.86 13.567 11.986 C 13.641 12.414 14.214 12.674 14.575 12.408 Z M 14.576 12.408 " transform="matrix(46.875,0,0,46.875,0,0)"/>
</g>
</svg>
