<svg xmlns="http://www.w3.org/2000/svg" enable-background="new 0 0 24 24" height="283.9698492751296" width="298.5276376852312"><rect id="backgroundrect" width="100%" height="100%" x="0" y="0" fill="none" stroke="none" class="" style=""/><g class="currentLayer" style=""><title>Layer 1</title><path d="m139.63819530698584,0 c-76.97555516297595,0 -139.63819530698584,62.61609407890757 -139.63819530698584,139.63819530698584 c0,76.97555516297595 62.66264014400989,139.63819530698584 139.63819530698584,139.63819530698584 s139.63819530698584,-62.66264014400989 139.63819530698584,-139.63819530698584 c0,-77.03373774435384 -62.66264014400989,-139.63819530698584 -139.63819530698584,-139.63819530698584 zm-125.55801061353142,139.62655879071025 c0,-18.187874938734907 3.8749599197688585,-35.468101607974404 10.868506201393734,-51.07266993353008 l59.90478578669693,164.07487948570835 c-41.90309510837133,-20.37553999854435 -70.77329198809065,-63.325921571718084 -70.77329198809065,-113.0022095521783 zm125.55801061353142,125.56964712980701 c-12.334707252117083,0 -24.21559036948646,-1.8036600227152344 -35.468101607974404,-5.13170367753173 l37.66740318405943,-109.45307208812574 l38.57505145355484,105.74102339621503 c0.27927639061397175,0.6283718788814365 0.5701892975035255,1.1752881438337976 0.896011753219826,1.7454774413373233 c-13.009625196100849,4.561514380028204 -27.031627308177338,7.098274928105115 -41.670364782859686,7.098274928105115 zm17.280226669239497,-184.3806003865992 v-0.011636516275582164 c7.5404625465772375,-0.39564155336979334 14.347824567792795,-1.1752881438337976 14.347824567792795,-1.1752881438337976 c6.760815956113232,-0.7912831067395867 5.969532849373645,-10.75214103863791 -0.7912831067395867,-10.3681360015437 c0,0 -20.328993933442025,1.5709296972035909 -33.44334777602311,1.5709296972035909 c-12.334707252117083,0 -33.0593427389289,-1.5709296972035909 -33.0593427389289,-1.5709296972035909 c-6.74917943983765,-0.39564155336979334 -7.528826030301655,9.972494448173906 -0.7796465904640044,10.3681360015437 c0,0 6.411720467845767,0.7912831067395867 13.172536423958999,1.1752881438337976 l19.537710826702437,53.5977939653314 l-27.473814926649467,82.37489871484605 l-45.708235930486694,-135.97269268017746 c7.552099062852818,-0.39564155336979334 14.359461084068377,-1.1752881438337976 14.359461084068377,-1.1752881438337976 c6.760815956113232,-0.7912831067395867 5.969532849373645,-10.75214103863791 -0.7912831067395867,-10.3681360015437 c0,0 -20.328993933442025,1.5709296972035909 -33.44334777602311,1.5709296972035909 c-2.3622128039431782,0 -5.13170367753173,-0.05818258137791078 -8.110651844080762,-0.16291122785815024 c22.47011292814914,-34.07171965490454 61.03352786542839,-56.58837864815602 104.90319422437312,-56.58837864815602 c32.663701185559106,0 62.441546334773825,12.509254996250815 84.79529410016714,32.93134105989749 c-0.5701892975035255,-0.05818258137791078 -1.0705594973535584,-0.10472864648023941 -1.6291122785815015,-0.10472864648023941 c-12.334707252117083,0 -21.0620944588037,10.75214103863791 -21.0620944588037,22.295565184015402 c0,10.356499485268117 5.969532849373645,19.08388669195473 12.334707252117083,29.45202269349843 c4.782608189264265,8.331745653316823 10.3681360015437,19.08388669195473 10.3681360015437,34.630272436132486 c0,10.75214103863791 -4.107690245280501,23.19157693723523 -9.576852894804112,40.599805285506136 l-12.509254996250815,41.83327601071784 zm92.91758246052349,-1.4196549856210228 c9.797946704040173,17.908598548120935 15.371838000044027,38.4005037094211 15.371838000044027,60.253881274964385 c0,46.33660780936813 -25.111602122706284,86.76186535074054 -62.441546334773825,108.49887775352799 l-0.011636516275582164,-0.011636516275582164 l38.342321128043196,-110.87272707374677 c7.144820993207443,-17.908598548120935 9.576852894804112,-32.19824053453582 9.576852894804112,-44.9867719214006 c0,-4.608060445130533 -0.27927639061397175,-8.890298434544768 -0.837829171841915,-12.881623517069443 z" id="svg_1" class="" fill-opacity="1" fill="#f3f3f3"/></g></svg>